# xmcd
#
# Track frame offsets: 
#        150
#        11255
#        23933
#        36463
#        45542
#        55597
#        69251
#        80205
#        89584
#        98138
#        111643
#        120722
#
# Disc length: 1742 seconds
#
# Revision: 0
# Processed by: cddbd v1.5.1PL2 Copyright (c) Steve Scherf et al.
# Submitted via: ExactAudioCopy v0.95b1
#
DISCID=9e06cc0c
DTITLE=Johnny Cash - Hymns From The Heart
DYEAR=1962
DGENRE=Country
TTITLE0=He'll Understand And Say Well Done
TTITLE1=God Must Have My Fortune Laid Away
TTITLE2=When I've Learned Enough To Die
TTITLE3=I Got Shoes
TTITLE4=Let The Lower Lights Be Burning
TTITLE5=If We Never Meet Again
TTITLE6=When I Take My Vacation In Heaven
TTITLE7=When The Savior Reached Down For Me
TTITLE8=Taller Than Trees
TTITLE9=I Won't Have To Cross Jordan Alone
TTITLE10=My God Is Real
TTITLE11=These Hands
EXTD=
EXTT0=
EXTT1=
EXTT2=
EXTT3=
EXTT4=
EXTT5=
EXTT6=
EXTT7=
EXTT8=
EXTT9=
EXTT10=
EXTT11=
PLAYORDER=
